<svg width="24" height="24" viewBox="0 0 24 24" fill="none" xmlns="http://www.w3.org/2000/svg">
<path d="M21.42 14.0432C21.42 15.8466 20.7036 17.5761 19.4284 18.8513C18.1532 20.1265 16.4237 20.8429 14.6203 20.8429H3.06076V19.483H14.6203C16.063 19.483 17.4466 18.9098 18.4668 17.8897C19.4869 16.8695 20.0601 15.4859 20.0601 14.0432C20.0601 12.6005 19.4869 11.2168 18.4668 10.1967C17.4466 9.17653 16.063 8.60341 14.6203 8.60341H4.93748L7.57577 10.7997L6.70541 11.8469L2 7.92344L6.70541 4L7.57577 5.04716L4.93748 7.24347H14.6203C16.4237 7.24347 18.1532 7.95986 19.4284 9.23506C20.7036 10.5103 21.42 12.2398 21.42 14.0432Z" fill="#00615E"/>
</svg>
