<svg width="24" height="24" viewBox="0 0 24 24" fill="none" xmlns="http://www.w3.org/2000/svg">
<path d="M16.7985 13.7788C15.4918 13.7788 14.4287 14.8419 14.4287 16.1486C14.4287 17.4553 15.4918 18.5183 16.7985 18.5183C18.1054 18.5183 19.1683 17.4553 19.1683 16.1486C19.1683 14.8419 18.1052 13.7788 16.7985 13.7788ZM16.7985 17.3335C16.145 17.3335 15.6136 16.802 15.6136 16.1486C15.6136 15.4951 16.145 14.9637 16.7985 14.9637C17.4519 14.9637 17.9834 15.4951 17.9834 16.1486C17.9834 16.8021 17.4519 17.3335 16.7985 17.3335Z" fill="#00615E"/>
<path d="M8.70229 13.7788C7.39557 13.7788 6.33252 14.8419 6.33252 16.1486C6.33252 17.4553 7.39557 18.5183 8.70229 18.5183C10.009 18.5183 11.0721 17.4553 11.0721 16.1486C11.0721 14.8419 10.009 13.7788 8.70229 13.7788ZM8.70229 17.3335C8.04884 17.3335 7.5174 16.802 7.5174 16.1486C7.5174 15.4951 8.04884 14.9637 8.70229 14.9637C9.35556 14.9637 9.88717 15.4951 9.88717 16.1486C9.88717 16.8021 9.35574 17.3335 8.70229 17.3335Z" fill="#00615E"/>
<path d="M18.3948 6.99641C18.294 6.79637 18.0893 6.67017 17.8653 6.67017H14.7451V7.85505H17.5L19.1132 11.0637L20.1721 10.5313L18.3948 6.99641Z" fill="#00615E"/>
<path d="M15.0214 15.5764H10.5386V16.7613H15.0214V15.5764Z" fill="#00615E"/>
<path d="M6.92451 15.5764H4.87074C4.5435 15.5764 4.27832 15.8416 4.27832 16.1688C4.27832 16.4961 4.54354 16.7613 4.87074 16.7613H6.92455C7.25179 16.7613 7.51697 16.496 7.51697 16.1688C7.51697 15.8416 7.25175 15.5764 6.92451 15.5764Z" fill="#00615E"/>
<path d="M21.2754 11.9536L20.1101 10.4527C19.9982 10.3082 19.8254 10.2236 19.6423 10.2236H15.3372V6.07655C15.3372 5.74932 15.072 5.48413 14.7448 5.48413H4.87074C4.5435 5.48413 4.27832 5.74935 4.27832 6.07655C4.27832 6.40376 4.54354 6.66898 4.87074 6.66898H14.1523V10.8161C14.1523 11.1433 14.4175 11.4085 14.7447 11.4085H19.3522L20.2149 12.5199V15.5753H18.5758C18.2486 15.5753 17.9834 15.8405 17.9834 16.1677C17.9834 16.495 18.2486 16.7602 18.5758 16.7602H20.8074C21.1346 16.7602 21.3998 16.4949 21.3998 16.1677V12.3169C21.3998 12.1854 21.356 12.0575 21.2754 11.9536Z" fill="#00615E"/>
<path d="M6.88505 12.572H4.15981C3.83257 12.572 3.56738 12.8372 3.56738 13.1644C3.56738 13.4917 3.8326 13.7569 4.15981 13.7569H6.88502C7.21226 13.7569 7.47744 13.4916 7.47744 13.1644C7.47748 12.8372 7.21226 12.572 6.88505 12.572Z" fill="#00615E"/>
<path d="M8.24803 10.2407H3.19252C2.86532 10.2407 2.6001 10.5059 2.6001 10.8332C2.6001 11.1604 2.86532 11.4256 3.19252 11.4256H8.24803C8.57527 11.4256 8.84045 11.1604 8.84045 10.8332C8.84045 10.506 8.57527 10.2407 8.24803 10.2407Z" fill="#00615E"/>
<path d="M9.21531 7.91064H4.15981C3.83257 7.91064 3.56738 8.17587 3.56738 8.50307C3.56738 8.83031 3.8326 9.09549 4.15981 9.09549H9.21531C9.54255 9.09549 9.80774 8.83027 9.80774 8.50307C9.80778 8.17587 9.54255 7.91064 9.21531 7.91064Z" fill="#00615E"/>
</svg>
